<svg width="339" height="331" viewBox="0 0 339 331" fill="none" xmlns="http://www.w3.org/2000/svg">
<path d="M217.499 39.7622C217.492 39.7297 217.484 39.6972 217.477 39.6647C215.025 40.0672 212.392 40.6006 209.875 41.1513C205.977 42.0072 202.168 42.97 198.267 44.0792C178.468 49.7904 158.921 57.8592 141.538 70.2988C121.836 83.511 101.409 110.308 110.519 138.699C115.359 154.95 125.553 167.299 136.384 178.091L136.174 177.873C139.152 180.979 141.865 183.025 144.53 185.165C151.512 190.642 158.085 195.672 163.401 201.412C170.09 208.567 174.743 216.289 174.471 224.896C174.461 225.464 174.42 226.04 174.346 226.626C173.054 236.599 163.159 246.989 153.006 255.081C144.154 262.11 134.392 268.315 124.307 274.027C116.04 278.699 107.45 283.077 98.8147 287.144C92.8635 289.94 86.8462 292.607 80.8727 295.087C80.8836 295.118 80.8944 295.15 80.9053 295.182C87.1404 293.454 93.457 291.536 99.7402 289.473C108.864 286.482 118.012 283.147 126.941 279.417C137.84 274.842 148.579 269.732 158.807 263.226C170.377 255.402 183.642 246.633 188.126 229.095C188.344 228.049 188.51 226.987 188.619 225.912C190.255 212.286 183.336 199.116 175.13 190.53C168.57 183.467 161.154 177.892 154.457 172.618C151.969 170.647 149.485 168.603 147.982 166.942L147.772 166.724C138.15 156.884 130.304 145.825 126.849 133.975C120.403 114.834 130.44 93.3445 147.818 78.081C162.518 64.8939 180.391 54.4402 199.087 46.41C202.779 44.8478 206.404 43.4267 210.147 42.1134C212.564 41.2635 215.115 40.4568 217.499 39.7622Z" fill="black"/>
<path d="M254.154 32.1495C254.146 32.1173 254.137 32.0851 254.129 32.0529C247.714 33.3718 241.297 35.2309 235.016 37.3128C215.364 43.949 196.166 52.7995 178.725 65.0843C159.808 78.4628 134.808 101.809 144.76 132.797C150.584 149.266 162.903 159.844 175.105 168.566C177.727 170.399 180.277 172.552 182.658 174.888C188.306 180.443 193.138 186.923 196.694 193.893C201.489 203.275 204.402 213.481 203.405 223.674C202.812 229.929 200.893 236.088 197.778 241.921C195.053 247.058 191.342 251.76 186.903 255.897C178.906 263.357 168.841 269.04 158.237 273.522C149.499 277.215 140.319 280.132 131.035 282.783C124.739 284.635 118.241 286.158 112.12 288.543C112.131 288.575 112.142 288.606 112.153 288.638C118.479 287.024 125.073 286.305 131.577 285.23C141.155 283.72 150.767 281.922 160.236 279.179C171.721 275.835 183.201 271.177 193.308 263.576C198.9 259.36 204.019 254.225 208.075 248.172C212.569 241.508 215.882 233.805 217.273 225.596C219.622 212.239 216.932 198.272 210.952 186.632C206.518 177.964 200.738 170.241 193.865 163.468C190.955 160.616 187.857 157.922 184.473 155.458C173.688 147.582 164.481 138.021 160.863 127.349C153.996 109.66 167.607 88.073 184.942 72.9169C199.967 59.6651 217.521 48.5858 235.966 39.6678C241.871 36.85 247.956 34.2365 254.154 32.1495Z" fill="black"/>
</svg>
