<svg width="340" height="332" viewBox="0 0 340 332" fill="none" xmlns="http://www.w3.org/2000/svg">
<path d="M218.433 40.2146C218.426 40.1821 218.419 40.1496 218.411 40.1171C215.959 40.5196 213.326 41.0531 210.809 41.6038C206.911 42.4596 203.102 43.4225 199.201 44.5316C179.402 50.2429 159.855 58.3116 142.473 70.7512C122.77 83.9634 102.343 110.761 111.453 139.152C116.293 155.402 126.487 167.752 137.318 178.543L137.108 178.325C140.086 181.431 142.799 183.477 145.464 185.618C152.446 191.094 159.019 196.124 164.335 201.865C171.024 209.019 175.677 216.741 175.405 225.348C175.395 225.917 175.354 226.493 175.28 227.079C173.988 237.051 164.093 247.441 153.94 255.533C145.088 262.563 135.326 268.768 125.241 274.479C116.974 279.151 108.384 283.529 99.7488 287.596C93.7976 290.392 87.7803 293.059 81.8068 295.539C81.8177 295.571 81.8285 295.602 81.8394 295.634C88.0745 293.907 94.3911 291.989 100.674 289.926C109.798 286.934 118.946 283.599 127.876 279.87C138.774 275.295 149.513 270.185 159.741 263.679C171.311 255.854 184.576 247.086 189.06 229.548C189.278 228.502 189.444 227.439 189.553 226.364C191.189 212.738 184.27 199.568 176.064 190.982C169.504 183.919 162.088 178.344 155.391 173.07C152.903 171.099 150.419 169.055 148.916 167.395L148.706 167.177C139.085 157.337 131.238 146.277 127.783 134.427C121.337 115.286 131.374 93.797 148.752 78.5334C163.452 65.3463 181.325 54.8927 200.021 46.8625C203.713 45.3002 207.338 43.8791 211.081 42.5659C213.499 41.716 216.049 40.9092 218.433 40.2146Z" fill="white"/>
<path d="M255.088 32.602C255.08 32.5698 255.071 32.5376 255.063 32.5054C248.648 33.8243 242.231 35.6834 235.951 37.7652C216.298 44.4015 197.1 53.252 179.659 65.5368C160.742 78.9153 135.742 102.262 145.694 133.249C151.518 149.719 163.837 160.296 176.039 169.019C178.661 170.852 181.211 173.004 183.592 175.34C189.24 180.896 194.072 187.375 197.628 194.345C202.423 203.728 205.336 213.933 204.34 224.127C203.746 230.382 201.827 236.541 198.712 242.373C195.987 247.511 192.276 252.212 187.837 256.349C179.84 263.809 169.775 269.493 159.171 273.974C150.433 277.667 141.253 280.584 131.969 283.235C125.673 285.088 119.175 286.611 113.054 288.996C113.065 289.027 113.076 289.059 113.087 289.09C119.413 287.477 126.007 286.758 132.511 285.683C142.089 284.173 151.701 282.374 161.17 279.631C172.655 276.287 184.136 271.63 194.242 264.029C199.834 259.813 204.953 254.678 209.009 248.625C213.503 241.961 216.816 234.257 218.207 226.049C220.556 212.692 217.866 198.725 211.886 187.084C207.452 178.416 201.672 170.694 194.799 163.92C191.889 161.068 188.791 158.375 185.407 155.911C174.622 148.035 165.415 138.473 161.797 127.801C154.93 110.112 168.541 88.5255 185.876 73.3694C200.901 60.1175 218.455 49.0383 236.9 40.1203C242.805 37.3025 248.89 34.689 255.088 32.602Z" fill="white"/>
</svg>
