<svg width="36" height="36" viewBox="0 0 36 36" fill="none" xmlns="http://www.w3.org/2000/svg">
<path d="M18.0001 21.2955C19.8201 21.2955 21.2956 19.8201 21.2956 18C21.2956 16.1799 19.8201 14.7045 18.0001 14.7045C16.18 14.7045 14.7046 16.1799 14.7046 18C14.7046 19.8201 16.18 21.2955 18.0001 21.2955Z" fill="white"/>
<path d="M32.4517 9.65506C31.3881 7.81422 28.8344 7.05793 25.2573 7.51975C24.8034 7.57888 24.337 7.66044 23.8634 7.75629C22.513 3.9285 20.41 1.5 18.0001 1.5C15.5865 1.5 13.4808 3.93662 12.1306 7.7751C8.02302 6.96108 4.77076 7.54006 3.54783 9.65506C2.32896 11.7656 3.44217 14.8594 6.18302 18C3.44217 21.1406 2.32896 24.2344 3.54777 26.3449C4.41991 27.8559 6.32277 28.5881 8.83457 28.5881C9.94224 28.5729 11.0459 28.4508 12.1301 28.2235C13.4802 32.0628 15.5862 34.5 18.0001 34.5C20.41 34.5 22.5129 32.0715 23.8634 28.2437C24.337 28.3396 24.8034 28.4211 25.2573 28.4802C25.9023 28.5656 26.5521 28.6097 27.2028 28.6122C29.7597 28.6122 31.5925 27.8318 32.4518 26.345C33.6706 24.2345 32.5576 21.1407 29.8171 18C32.5575 14.8594 33.6706 11.7656 32.4517 9.65506ZM25.4778 9.20934C26.0544 9.132 26.6354 9.09169 27.2173 9.08865C29.108 9.08865 30.4419 9.58104 30.9778 10.5079C31.7341 11.8179 30.8781 14.17 28.6499 16.7596C27.5728 15.6997 26.4189 14.7206 25.1979 13.8303C25.0346 12.3439 24.7603 10.8717 24.3772 9.42617C24.7432 9.35616 25.1256 9.2552 25.4778 9.20934ZM20.8692 22.9706C19.8995 23.5306 18.9431 24.0258 18.0088 24.4608C17.0498 24.0145 16.087 23.5228 15.1303 22.9706C14.157 22.4087 13.2474 21.8257 12.4009 21.2318C12.3075 20.2027 12.2556 19.1243 12.2556 18C12.2556 16.8757 12.3075 15.7973 12.4009 14.7682C13.2474 14.1743 14.157 13.5913 15.1303 13.0294C16.0826 12.4797 17.0411 11.9894 17.9957 11.5447C18.9357 11.9817 19.8933 12.4658 20.8693 13.0294C21.8429 13.5915 22.7528 14.1746 23.5995 14.7688C23.6929 15.7978 23.7448 16.8759 23.7448 18C23.7448 19.1241 23.6929 20.2022 23.5995 21.2312C22.7528 21.8254 21.8429 22.4085 20.8692 22.9706ZM23.3112 23.4732C23.1633 24.3949 22.9674 25.3082 22.7242 26.2094C21.8301 25.9625 20.9489 25.6708 20.084 25.3355C20.6284 25.0548 21.1747 24.7605 21.722 24.4445C22.2687 24.129 22.7966 23.8039 23.3112 23.4732ZM15.9251 25.3388C15.0575 25.674 14.1736 25.9651 13.2766 26.211C13.0331 25.3091 12.837 24.3951 12.689 23.4728C13.2039 23.8036 13.7321 24.1288 14.279 24.4446C14.8254 24.7602 15.3749 25.0552 15.9251 25.3388ZM10.6115 19.8755C9.88068 19.2865 9.18037 18.6605 8.51334 18C9.18037 17.3395 9.88068 16.7135 10.6115 16.1244C10.5815 16.7399 10.5628 17.3639 10.5628 18C10.5628 18.6361 10.5815 19.2601 10.6115 19.8755ZM12.689 12.5272C12.8369 11.6065 13.0326 10.6942 13.2755 9.79385C14.1744 10.0369 15.0602 10.3256 15.9296 10.6591C15.378 10.9433 14.8271 11.2389 14.2791 11.5554C13.7321 11.8712 13.204 12.1964 12.689 12.5272ZM20.0849 10.6642C20.9495 10.3291 21.8304 10.0376 22.7243 9.7907C22.9674 10.6919 23.1634 11.6052 23.3113 12.5268C22.7967 12.1961 22.2687 11.8711 21.7221 11.5555C21.1751 11.2396 20.6291 10.9448 20.0849 10.6642ZM25.3888 16.125C26.1193 16.7139 26.8193 17.3398 27.4861 18C26.8193 18.6603 26.1193 19.2861 25.3887 19.875C25.4187 19.2598 25.4375 18.636 25.4375 18C25.4375 17.364 25.4188 16.7402 25.3888 16.125ZM18.0001 3.19281C19.4967 3.19281 21.0843 5.04431 22.2113 8.15847C20.7721 8.56257 19.3638 9.06959 17.9972 9.67558C16.6319 9.07132 15.2244 8.5672 13.7859 8.16721C14.9132 5.04762 16.5026 3.19281 18.0001 3.19281ZM5.02173 10.5079C5.54873 9.59553 6.89958 9.10635 8.80238 9.10635C9.75149 9.11976 10.6973 9.22093 11.6278 9.40857C11.2422 10.8599 10.9662 12.3381 10.8023 13.8307C9.58104 14.721 8.42707 15.7001 7.34983 16.7601C5.1213 14.1704 4.26523 11.818 5.02173 10.5079ZM5.02173 25.4921C4.26523 24.182 5.1213 21.8296 7.34983 19.2399C8.42712 20.2999 9.58108 21.279 10.8023 22.1693C10.9664 23.6647 11.2431 25.1457 11.63 26.5996C8.25879 27.243 5.78214 26.8087 5.02173 25.4921ZM18.0001 32.8072C16.5021 32.8072 14.9124 30.9516 13.785 27.8306C15.2255 27.4327 16.6351 26.9301 18.0023 26.3267C19.3673 26.9317 20.7739 27.4379 22.2113 27.8414C21.0843 30.9556 19.4967 32.8072 18.0001 32.8072ZM30.9778 25.4921C30.289 26.6812 28.2889 27.1559 25.4777 26.7907C25.1255 26.7448 24.7432 26.6438 24.3772 26.5738C24.7603 25.1283 25.0346 23.6561 25.1979 22.1695C26.419 21.2793 27.5728 20.3003 28.65 19.2405C30.8781 21.83 31.7341 24.1821 30.9778 25.4921Z" fill="white"/>
</svg>
