<svg width="36" height="36" viewBox="0 0 36 36" fill="none" xmlns="http://www.w3.org/2000/svg">
<path d="M29.0056 24.0171C29.4888 23.5582 29.8736 23.0059 30.1365 22.3936C30.3994 21.7813 30.535 21.122 30.535 20.4556C30.535 19.7893 30.3994 19.13 30.1365 18.5177C29.8736 17.9054 29.4888 17.3531 29.0056 16.8942C28.0166 15.9555 26.705 15.4322 25.3414 15.4322C23.9777 15.4322 22.6661 15.9555 21.6771 16.8942L17.9999 20.5714L14.3228 16.8942C13.3337 15.9555 12.0221 15.4322 10.6585 15.4322C9.29488 15.4322 7.98327 15.9555 6.99421 16.8942C6.51103 17.3531 6.12627 17.9054 5.86335 18.5177C5.60043 19.13 5.46484 19.7893 5.46484 20.4556C5.46484 21.122 5.60043 21.7813 5.86335 22.3936C6.12627 23.0059 6.51103 23.5582 6.99421 24.0171L17.9999 34.7142L29.0056 24.0171ZM17.9999 11.5714C19.3639 11.5714 20.672 11.0295 21.6365 10.0651C22.6009 9.10058 23.1428 7.79247 23.1428 6.4285C23.1428 5.06453 22.6009 3.75643 21.6365 2.79195C20.672 1.82748 19.3639 1.28564 17.9999 1.28564C16.636 1.28564 15.3278 1.82748 14.3634 2.79195C13.3989 3.75643 12.8571 5.06453 12.8571 6.4285C12.8571 7.79247 13.3989 9.10058 14.3634 10.0651C15.3278 11.0295 16.636 11.5714 17.9999 11.5714Z" stroke="white" stroke-width="2.28571" stroke-linecap="round" stroke-linejoin="round"/>
</svg>
