<svg width="36" height="36" viewBox="0 0 36 36" fill="none" xmlns="http://www.w3.org/2000/svg">
<path d="M34.875 29.5312H33.4688V18C33.4688 17.4779 33.2613 16.9771 32.8921 16.6079C32.5229 16.2387 32.0221 16.0312 31.5 16.0312H23.3438V6.75C23.3438 6.22786 23.1363 5.7271 22.7671 5.35788C22.3979 4.98867 21.8971 4.78125 21.375 4.78125H7.875C7.35285 4.78125 6.8521 4.98867 6.48288 5.35788C6.11367 5.7271 5.90625 6.22786 5.90625 6.75V29.5312H4.5C4.27622 29.5312 4.06161 29.6201 3.90338 29.7784C3.74514 29.9366 3.65625 30.1512 3.65625 30.375C3.65625 30.5988 3.74514 30.8134 3.90338 30.9716C4.06161 31.1299 4.27622 31.2188 4.5 31.2188H34.875C35.0988 31.2188 35.3134 31.1299 35.4716 30.9716C35.6299 30.8134 35.7188 30.5988 35.7188 30.375C35.7188 30.1512 35.6299 29.9366 35.4716 29.7784C35.3134 29.6201 35.0988 29.5312 34.875 29.5312ZM31.5 17.7188C31.5746 17.7188 31.6461 17.7484 31.6989 17.8011C31.7516 17.8539 31.7812 17.9254 31.7812 18V29.5312H23.3438V17.7188H31.5ZM7.59375 6.75C7.59375 6.67541 7.62338 6.60387 7.67613 6.55113C7.72887 6.49838 7.80041 6.46875 7.875 6.46875H21.375C21.4496 6.46875 21.5211 6.49838 21.5739 6.55113C21.6266 6.60387 21.6562 6.67541 21.6562 6.75V29.5312H18.8438V22.5C18.8438 22.2762 18.7549 22.0616 18.5966 21.9034C18.4384 21.7451 18.2238 21.6562 18 21.6562H11.25C11.0262 21.6562 10.8116 21.7451 10.6534 21.9034C10.4951 22.0616 10.4062 22.2762 10.4062 22.5V29.5312H7.59375V6.75ZM17.1562 29.5312H12.0938V23.3438H17.1562V29.5312ZM10.4062 13.5C10.4062 13.2762 10.4951 13.0616 10.6534 12.9034C10.8116 12.7451 11.0262 12.6562 11.25 12.6562H13.7812V10.125C13.7812 9.90122 13.8701 9.68661 14.0284 9.52838C14.1866 9.37015 14.4012 9.28125 14.625 9.28125C14.8488 9.28125 15.0634 9.37015 15.2216 9.52838C15.3799 9.68661 15.4688 9.90122 15.4688 10.125V12.6562H18C18.2238 12.6562 18.4384 12.7451 18.5966 12.9034C18.7549 13.0616 18.8438 13.2762 18.8438 13.5C18.8438 13.7238 18.7549 13.9384 18.5966 14.0966C18.4384 14.2549 18.2238 14.3438 18 14.3438H15.4688V16.875C15.4688 17.0988 15.3799 17.3134 15.2216 17.4716C15.0634 17.6299 14.8488 17.7188 14.625 17.7188C14.4012 17.7188 14.1866 17.6299 14.0284 17.4716C13.8701 17.3134 13.7812 17.0988 13.7812 16.875V14.3438H11.25C11.0262 14.3438 10.8116 14.2549 10.6534 14.0966C10.4951 13.9384 10.4062 13.7238 10.4062 13.5Z" fill="#F5F5F5"/>
</svg>
