<svg width="36" height="36" viewBox="0 0 36 36" fill="none" xmlns="http://www.w3.org/2000/svg">
<path d="M12.7845 30.7905H3.456C2.9375 30.7905 2.44021 30.5846 2.07343 30.2181C1.70665 29.8516 1.5004 29.3545 1.5 28.836V8.30399C1.5 7.78523 1.70608 7.28771 2.0729 6.92089C2.43972 6.55407 2.93724 6.34799 3.456 6.34799H8.346C8.3776 5.07245 8.90651 3.85977 9.81983 2.96879C10.7332 2.07781 11.9586 1.5791 13.2345 1.5791C14.5104 1.5791 15.7358 2.07781 16.6492 2.96879C17.5625 3.85977 18.0914 5.07245 18.123 6.34799H23.01C23.5288 6.34799 24.0263 6.55407 24.3931 6.92089C24.7599 7.28771 24.966 7.78523 24.966 8.30399V10.137" stroke="white" stroke-width="2" stroke-linecap="round" stroke-linejoin="round"/>
<path d="M13.2317 6.22492C13.1347 6.22492 13.0416 6.18636 12.9729 6.11772C12.9043 6.04908 12.8657 5.95599 12.8657 5.85892C12.8657 5.76185 12.9043 5.66876 12.9729 5.60012C13.0416 5.53148 13.1347 5.49292 13.2317 5.49292M13.2317 6.22492C13.2798 6.22492 13.3274 6.21545 13.3718 6.19706C13.4162 6.17867 13.4565 6.15171 13.4905 6.11772C13.5245 6.08373 13.5515 6.04339 13.5699 5.99898C13.5883 5.95458 13.5977 5.90698 13.5977 5.85892C13.5977 5.81086 13.5883 5.76326 13.5699 5.71886C13.5515 5.67445 13.5245 5.63411 13.4905 5.60012C13.4565 5.56613 13.4162 5.53917 13.3718 5.52078C13.3274 5.50239 13.2798 5.49292 13.2317 5.49292" stroke="white" stroke-width="2"/>
<path d="M17.61 28.7594H33.699M6.85498 12.0959H18.6255M6.85498 17.2964H15.693M6.85498 22.4999H12.027M28.26 13.9259V22.9859L33.6945 28.7594C34.1229 29.2721 34.3942 29.8975 34.476 30.5606C34.5577 31.2236 34.4464 31.8962 34.1553 32.4975C33.8642 33.0989 33.4057 33.6034 32.835 33.9506C32.2642 34.2978 31.6053 34.473 30.9375 34.4549H20.3625C19.6949 34.4723 19.0365 34.2968 18.4661 33.9495C17.8957 33.6021 17.4376 33.0977 17.1466 32.4966C16.8557 31.8955 16.7442 31.2233 16.8256 30.5604C16.907 29.8976 17.1777 29.2723 17.6055 28.7594L23.0445 22.9874V13.9259H28.26Z" stroke="white" stroke-width="2" stroke-linecap="round" stroke-linejoin="round"/>
</svg>
