<svg width="60" height="60" viewBox="0 0 60 60" fill="none" xmlns="http://www.w3.org/2000/svg">
<path d="M22.5 50C13.0725 47.83 7.5 39.1925 7.5 31.275C7.5 21.86 15.925 12.5575 21.84 7.18752C23.3892 5.7802 25.407 5.00049 27.5 5.00049C29.593 5.00049 31.6108 5.7802 33.16 7.18752C36.9275 10.6075 41.435 15.625 44.3775 21.25" stroke="white" stroke-width="4" stroke-linecap="round"/>
<path d="M42.3774 38.7501C38.6274 41.2501 32.3774 46.2501 27.3774 55.0001M32.3774 47.5001C25.7174 32.8501 39.4649 28.0901 49.6899 27.5401C50.9249 27.4726 51.5399 27.4401 51.9849 27.8676C52.4274 28.2926 52.3999 28.9051 52.3499 30.1226C51.9274 40.2551 47.3649 54.0176 32.3774 47.5001Z" stroke="white" stroke-width="4" stroke-linecap="round" stroke-linejoin="round"/>
</svg>
