<svg width="36" height="36" viewBox="0 0 36 36" fill="none" xmlns="http://www.w3.org/2000/svg">
<path d="M18.75 25.5H17.25C16.8 25.5 16.5 25.8 16.5 26.25C16.5 26.7 16.8 27 17.25 27H18.75C19.2 27 19.5 26.7 19.5 26.25C19.5 25.8 19.2 25.5 18.75 25.5ZM11.25 19.5H9.75C9.3 19.5 9 19.8 9 20.25C9 20.7 9.3 21 9.75 21H11.25C11.7 21 12 20.7 12 20.25C12 19.8 11.7 19.5 11.25 19.5ZM18.75 19.5H17.25C16.8 19.5 16.5 19.8 16.5 20.25C16.5 20.7 16.8 21 17.25 21H18.75C19.2 21 19.5 20.7 19.5 20.25C19.5 19.8 19.2 19.5 18.75 19.5ZM11.25 25.5H9.75C9.3 25.5 9 25.8 9 26.25C9 26.7 9.3 27 9.75 27H11.25C11.7 27 12 26.7 12 26.25C12 25.8 11.7 25.5 11.25 25.5ZM20.25 11.25H18.75V9.75C18.75 9.3 18.45 9 18 9C17.55 9 17.25 9.3 17.25 9.75V11.25H15.75C15.3 11.25 15 11.55 15 12C15 12.45 15.3 12.75 15.75 12.75H17.25V14.25C17.25 14.7 17.55 15 18 15C18.45 15 18.75 14.7 18.75 14.25V12.75H20.25C20.7 12.75 21 12.45 21 12C21 11.55 20.7 11.25 20.25 11.25ZM32.25 10.5H27V3.75C27 3.3 26.7 3 26.25 3H9.75C9.3 3 9 3.3 9 3.75V10.5H3.75C3.3 10.5 3 10.8 3 11.25V32.25C3 32.7 3.3 33 3.75 33H32.25C32.7 33 33 32.7 33 32.25V11.25C33 10.8 32.7 10.5 32.25 10.5ZM31.5 31.5H4.5V12H9.75C10.2 12 10.5 11.7 10.5 11.25V4.5H25.5V11.25C25.5 11.7 25.8 12 26.25 12H31.5V31.5ZM26.25 25.5H24.75C24.3 25.5 24 25.8 24 26.25C24 26.7 24.3 27 24.75 27H26.25C26.7 27 27 26.7 27 26.25C27 25.8 26.7 25.5 26.25 25.5ZM24.75 19.5C24.3 19.5 24 19.8 24 20.25C24 20.7 24.3 21 24.75 21H26.25C26.7 21 27 20.7 27 20.25C27 19.8 26.7 19.5 26.25 19.5H24.75Z" fill="white"/>
</svg>
